<svg width="1024" height="1024" viewBox="0 0 1024 1024" xmlns="http://www.w3.org/2000/svg">
  <defs>
    <linearGradient id="bg" x1="0" y1="0" x2="1" y2="1">
      <stop offset="0" stop-color="#818cf8"/>
      <stop offset="1" stop-color="#4f52e0"/>
    </linearGradient>
    <linearGradient id="hull" x1="0" y1="0" x2="0" y2="1">
      <stop offset="0" stop-color="#ffffff"/>
      <stop offset="1" stop-color="#e7e9ff"/>
    </linearGradient>
  </defs>

  <rect width="1024" height="1024" rx="224" fill="url(#bg)"/>

  <!-- water lines -->
  <path d="M120 700 q60 -28 120 0 q60 28 120 0 q60 -28 120 0 q60 28 120 0 q60 -28 120 0 q60 28 120 0 q60 -28 120 0"
        fill="none" stroke="#ffffff" stroke-opacity="0.35" stroke-width="20" stroke-linecap="round"/>

  <!-- ferry hull -->
  <path d="M232 660 L792 660 L728 800 Q512 840 296 800 Z" fill="url(#hull)"/>

  <!-- deck / cabin -->
  <rect x="372" y="500" width="280" height="160" rx="18" fill="#ffffff"/>
  <rect x="408" y="540" width="60" height="60" rx="10" fill="#6366f1"/>
  <rect x="496" y="540" width="60" height="60" rx="10" fill="#6366f1"/>
  <rect x="584" y="540" width="60" height="60" rx="10" fill="#6366f1"/>

  <!-- mast + flag -->
  <rect x="498" y="320" width="20" height="190" rx="8" fill="#ffffff"/>
  <path d="M518 330 L612 366 L518 402 Z" fill="#fbbf24"/>

  <!-- chimney -->
  <rect x="600" y="420" width="44" height="90" rx="10" fill="#ffffff"/>
</svg>
